<svg xmlns="http://www.w3.org/2000/svg" viewBox="0 0 900 900" width="900" height="900">
  <defs>
    
  <radialGradient id="bg" cx="50%" cy="21" r="85%">
    <stop offset="0%" stop-color="#328113d341d8"/>
    <stop offset="60%" stop-color="#1362a52882"/>
    <stop offset="100%" stop-color="#b2d4c3b2d"/>
  </radialGradient>
  <radialGradient id="glow" cx="50%" cy="42%" r="60%">
    <stop offset="0%" stop-color="#4ffd7137472" stop-opacity="0.55"/>
    <stop offset="55%" stop-color="#3c4ca5c5544" stop-opacity="0.14"/>
    <stop offset="100%" stop-color="#30e9ca7430a" stop-opacity="0"/>
  </radialGradient>
    <filter id="soft" x="-40%" y="-40%" width="180%" height="180%">
  <feGaussianBlur stdDeviation="18"/>
</filter>
  </defs>
  <rect width="900" height="900" fill="url(#bg)"/>
  <rect width="900" height="900" fill="url(#glow)"/>
  <rect x="10" y="10" width="880" height="880" rx="48" fill="url(#glass)" opacity="0.5"/>
  <ellipse cx="450" cy="792" rx="150" ry="13" fill="#000000" opacity="0.42" filter="url(#soft)"/>
  <g transform="translate(450 450) rotate(-3) scale(0.9799999999999999) translate(-450 -450)">
  <g transform="translate(54 126) scale(0.72)">
      <rect x="310" y="330" width="280" height="170" rx="30" fill="url(#unit)" stroke="url(#metalSoft)" stroke-width="6"/>
      <circle cx="340" cy="330" r="26" fill="url(#metalSoft)"/>
      <circle cx="560" cy="330" r="26" fill="url(#metalSoft)"/>
      <path d="M450 150 L450 210 M450 280 H360 M450 280 H540" stroke="url(#metalSoft)" stroke-width="22" stroke-linecap="round"/>
      <path d="M450 330 C500 330 520 360 520 400 C520 430 500 460 450 468 C400 460 380 430 380 400 C380 360 400 330 450 330 Z"
            fill="url(#unitSoft)" stroke="url(#acc)" stroke-width="10"/>
      <circle cx="450" cy="400" r="52" fill="none" stroke="url(#accLight)" stroke-width="8" opacity="0.6"/>
    </g>
</g>
  <rect x="1" y="1" width="898" height="898" rx="48" fill="#ffffff" opacity="0.03"/>
  <rect x="1" y="1" width="898" height="898" rx="48" fill="none" stroke="#ffffff" stroke-opacity="0.06" stroke-width="2"/>
</svg>