<svg xmlns="http://www.w3.org/2000/svg" viewBox="0 0 800 1000" width="800" height="1000">
  <defs>
    <linearGradient id="bg" x1="0" y1="0" x2="0" y2="1">
      <stop offset="0" stop-color="#e3e1d5"/>
      <stop offset="1" stop-color="#dbdacc"/>
    </linearGradient>
    <filter id="soft" x="-20%" y="-200%" width="140%" height="500%">
      <feGaussianBlur stdDeviation="10"/>
    </filter>
  </defs>
  <rect width="800" height="1000" fill="url(#bg)"/>
  
  <g transform="translate(40 40) scale(3.6)">
    <path d="M68 34 Q100 50 132 34 L166 50 Q176 54 178 66 L188 156 L162 160 L150 94 L152 170 L48 170 L50 94 L38 160 L12 156 L22 66 Q24 54 34 50 Z" fill="#a3ac8f" stroke="#5a5d4f" stroke-width="1.3" stroke-linejoin="round"/>
    <path d="M68 34 L100 104 L132 34 M100 104 L100 170 M50 160 L150 160 M14 146 L38 150 M162 150 L186 146" fill="none" stroke="#5a5d4f" stroke-width="1.1" stroke-linecap="round" stroke-linejoin="round" opacity="0.8"/>
    <circle cx="106" cy="116" r="2.4" fill="#5a5d4f"/>
    <circle cx="106" cy="134" r="2.4" fill="#5a5d4f"/>
    <circle cx="106" cy="152" r="2.4" fill="#5a5d4f"/>
  </g>
  <rect y="800" width="800" height="200" fill="#ede8e0" opacity="0.9"/>
  <text x="400" y="862" text-anchor="middle" font-family="'Helvetica Neue', Helvetica, Arial, sans-serif" font-size="17" letter-spacing="6" fill="#1f1d1a" fill-opacity="0.5">KNITWEAR</text>
  <text x="400" y="912" text-anchor="middle" font-family="'Cormorant Garamond', Georgia, 'Times New Roman', serif" font-size="40" font-weight="600" fill="#1f1d1a" fill-opacity="0.85">Fen Merino Cardigan</text>
  <text x="400" y="952" text-anchor="middle" font-family="'Helvetica Neue', Helvetica, Arial, sans-serif" font-size="13" letter-spacing="3" fill="#1f1d1a" fill-opacity="0.38">DETAIL · PHOTO COMING SOON</text>
</svg>
