<svg xmlns="http://www.w3.org/2000/svg" viewBox="0 0 900 900" width="900" height="900">
  <defs>
    
  <radialGradient id="bg" cx="50%" cy="33%" r="85%">
    <stop offset="0%" stop-color="#244f7b"/>
    <stop offset="60%" stop-color="#331533"/>
    <stop offset="100%" stop-color="#0b0e1e"/>
  </radialGradient>
  <radialGradient id="glow" cx="50%" cy="42%" r="60%">
    <stop offset="0%" stop-color="#479ef5" stop-opacity="0.55"/>
    <stop offset="55%" stop-color="#187adc" stop-opacity="0.14"/>
    <stop offset="100%" stop-color="#1f66ad" stop-opacity="0"/>
  </radialGradient>
    <linearGradient id="metal" x1="0%" y1="0%" x2="100%" y2="100%">
    <stop offset="0%" stop-color="#c0c4ce"/>
    <stop offset="100%" stop-color="#394560"/>
  </linearGradient>
    <linearGradient id="metalSoft" x1="0%" y1="0%" x2="100%" y2="100%">
    <stop offset="0%" stop-color="#9ea4b3"/>
    <stop offset="100%" stop-color="#2d374d"/>
  </linearGradient>
    <linearGradient id="acc" x1="0%" y1="0%" x2="100%" y2="100%">
    <stop offset="0%" stop-color="#699ed3"/>
    <stop offset="100%" stop-color="#306ba6"/>
  </linearGradient>
    <linearGradient id="accLight" x1="0%" y1="0%" x2="100%" y2="100%">
    <stop offset="0%" stop-color="#a8c7e6"/>
    <stop offset="100%" stop-color="#6199d1"/>
  </linearGradient>
    <linearGradient id="unit" x1="0%" y1="0%" x2="100%" y2="100%">
    <stop offset="0%" stop-color="#2d5780"/>
    <stop offset="100%" stop-color="#182e44"/>
  </linearGradient>
    <linearGradient id="unitSoft" x1="0%" y1="0%" x2="100%" y2="100%">
    <stop offset="0%" stop-color="#284767"/>
    <stop offset="100%" stop-color="#17293b"/>
  </linearGradient>
    <linearGradient id="sheen" x1="0%" y1="0%" x2="100%" y2="0%">
    <stop offset="0%" stop-color="#ffffff" stop-opacity="0"/>
    <stop offset="50%" stop-color="#ffffff" stop-opacity="0.9"/>
    <stop offset="100%" stop-color="#ffffff" stop-opacity="0"/>
  </linearGradient>
    <linearGradient id="glass" x1="0%" y1="0%" x2="100%" y2="100%">
    <stop offset="0%" stop-color="#ffffff" stop-opacity="0.32"/>
    <stop offset="100%" stop-color="#ffffff" stop-opacity="0.02"/>
  </linearGradient>
    <filter id="soft" x="-40%" y="-40%" width="180%" height="180%">
  <feGaussianBlur stdDeviation="18"/>
</filter>
  </defs>
  <rect width="900" height="900" fill="url(#bg)"/>
  <rect width="900" height="900" fill="url(#glow)"/>
  <rect x="10" y="10" width="880" height="880" rx="48" fill="url(#glass)" opacity="0.5"/>
  <ellipse cx="450" cy="792" rx="150" ry="13" fill="#000000" opacity="0.42" filter="url(#soft)"/>
  <g transform="translate(450 450) rotate(6) scale(0.728) translate(-450 -450)">
  <g transform="translate(54 126) scale(0.72)">
      <path d="M420 190 Q420 150 450 140 Q480 150 480 190 L490 560 Q495 640 450 640 Q405 640 410 560 Z"
            fill="url(#unit)" stroke="url(#metalSoft)" stroke-width="6"/>
      <rect x="412" y="210" width="76" height="46" rx="16" fill="url(#accLight)"/>
      <circle cx="450" cy="500" r="54" fill="url(#acc)" opacity="0.85"/>
      <circle cx="450" cy="500" r="28" fill="url(#unit)"/>
      <path d="M450 236 L450 470" stroke="url(#sheen)" stroke-width="16" opacity="0.3"/>
    </g>
</g>
  <rect x="1" y="1" width="898" height="898" rx="48" fill="#ffffff" opacity="0.03"/>
  <rect x="1" y="1" width="898" height="898" rx="48" fill="none" stroke="#ffffff" stroke-opacity="0.06" stroke-width="2"/>
</svg>