<svg xmlns="http://www.w3.org/2000/svg" viewBox="0 0 900 900" width="900" height="900">
  <defs>
    
  <radialGradient id="bg" cx="50%" cy="33%" r="85%">
    <stop offset="0%" stop-color="#7b5e24"/>
    <stop offset="60%" stop-color="#15331a"/>
    <stop offset="100%" stop-color="#1e1e0b"/>
  </radialGradient>
  <radialGradient id="glow" cx="50%" cy="42%" r="60%">
    <stop offset="0%" stop-color="#f5bb47" stop-opacity="0.55"/>
    <stop offset="55%" stop-color="#dc9b18" stop-opacity="0.14"/>
    <stop offset="100%" stop-color="#ad7e1f" stop-opacity="0"/>
  </radialGradient>
    <linearGradient id="metal" x1="0%" y1="0%" x2="100%" y2="100%">
    <stop offset="0%" stop-color="#ceccc0"/>
    <stop offset="100%" stop-color="#605b39"/>
  </linearGradient>
    <linearGradient id="metalSoft" x1="0%" y1="0%" x2="100%" y2="100%">
    <stop offset="0%" stop-color="#b3b09e"/>
    <stop offset="100%" stop-color="#4d492d"/>
  </linearGradient>
    <linearGradient id="acc" x1="0%" y1="0%" x2="100%" y2="100%">
    <stop offset="0%" stop-color="#d3b069"/>
    <stop offset="100%" stop-color="#a67f30"/>
  </linearGradient>
    <linearGradient id="accLight" x1="0%" y1="0%" x2="100%" y2="100%">
    <stop offset="0%" stop-color="#e6d1a8"/>
    <stop offset="100%" stop-color="#d1ac61"/>
  </linearGradient>
    <linearGradient id="unit" x1="0%" y1="0%" x2="100%" y2="100%">
    <stop offset="0%" stop-color="#80652d"/>
    <stop offset="100%" stop-color="#443518"/>
  </linearGradient>
    <linearGradient id="unitSoft" x1="0%" y1="0%" x2="100%" y2="100%">
    <stop offset="0%" stop-color="#675228"/>
    <stop offset="100%" stop-color="#3b2f17"/>
  </linearGradient>
    <linearGradient id="sheen" x1="0%" y1="0%" x2="100%" y2="0%">
    <stop offset="0%" stop-color="#ffffff" stop-opacity="0"/>
    <stop offset="50%" stop-color="#ffffff" stop-opacity="0.9"/>
    <stop offset="100%" stop-color="#ffffff" stop-opacity="0"/>
  </linearGradient>
    <linearGradient id="glass" x1="0%" y1="0%" x2="100%" y2="100%">
    <stop offset="0%" stop-color="#ffffff" stop-opacity="0.32"/>
    <stop offset="100%" stop-color="#ffffff" stop-opacity="0.02"/>
  </linearGradient>
    <filter id="soft" x="-40%" y="-40%" width="180%" height="180%">
  <feGaussianBlur stdDeviation="18"/>
</filter>
  </defs>
  <rect width="900" height="900" fill="url(#bg)"/>
  <rect width="900" height="900" fill="url(#glow)"/>
  <rect x="10" y="10" width="880" height="880" rx="48" fill="url(#glass)" opacity="0.5"/>
  <ellipse cx="450" cy="792" rx="150" ry="13" fill="#000000" opacity="0.42" filter="url(#soft)"/>
  <g transform="translate(450 450) rotate(6) scale(0.728) translate(-450 -450)">
  <g transform="translate(54 126) scale(0.72)">
      <path d="M430 500 H380 L410 360 H490 L520 500 H470" fill="url(#metalSoft)"/>
      <path d="M410 360 Q450 250 490 360 Z" fill="url(#acc)" opacity="0.95"/>
      <circle cx="450" cy="330" r="70" fill="url(#glow)" opacity="0.8"/>
      <path d="M430 500 H470" stroke="url(#unit)" stroke-width="5"/>
      <rect x="412" y="540" width="76" height="22" rx="11" fill="url(#unitSoft)"/>
    </g>
</g>
  <rect x="1" y="1" width="898" height="898" rx="48" fill="#ffffff" opacity="0.03"/>
  <rect x="1" y="1" width="898" height="898" rx="48" fill="none" stroke="#ffffff" stroke-opacity="0.06" stroke-width="2"/>
</svg>