<svg xmlns="http://www.w3.org/2000/svg" viewBox="0 0 900 900" width="900" height="900">
  <defs>
    
  <radialGradient id="bg" cx="50%" cy="33%" r="85%">
    <stop offset="0%" stop-color="#24567b"/>
    <stop offset="60%" stop-color="#301533"/>
    <stop offset="100%" stop-color="#0b101e"/>
  </radialGradient>
  <radialGradient id="glow" cx="50%" cy="42%" r="60%">
    <stop offset="0%" stop-color="#47adf5" stop-opacity="0.55"/>
    <stop offset="55%" stop-color="#188bdc" stop-opacity="0.14"/>
    <stop offset="100%" stop-color="#1f72ad" stop-opacity="0"/>
  </radialGradient>
    <linearGradient id="metal" x1="0%" y1="0%" x2="100%" y2="100%">
    <stop offset="0%" stop-color="#c0c5ce"/>
    <stop offset="100%" stop-color="#394860"/>
  </linearGradient>
    <linearGradient id="metalSoft" x1="0%" y1="0%" x2="100%" y2="100%">
    <stop offset="0%" stop-color="#9ea6b3"/>
    <stop offset="100%" stop-color="#2d394d"/>
  </linearGradient>
    <linearGradient id="acc" x1="0%" y1="0%" x2="100%" y2="100%">
    <stop offset="0%" stop-color="#69a7d3"/>
    <stop offset="100%" stop-color="#3075a6"/>
  </linearGradient>
    <linearGradient id="accLight" x1="0%" y1="0%" x2="100%" y2="100%">
    <stop offset="0%" stop-color="#a8cce6"/>
    <stop offset="100%" stop-color="#61a2d1"/>
  </linearGradient>
    <linearGradient id="unit" x1="0%" y1="0%" x2="100%" y2="100%">
    <stop offset="0%" stop-color="#2d5e80"/>
    <stop offset="100%" stop-color="#183244"/>
  </linearGradient>
    <linearGradient id="unitSoft" x1="0%" y1="0%" x2="100%" y2="100%">
    <stop offset="0%" stop-color="#284d67"/>
    <stop offset="100%" stop-color="#172c3b"/>
  </linearGradient>
    <linearGradient id="sheen" x1="0%" y1="0%" x2="100%" y2="0%">
    <stop offset="0%" stop-color="#ffffff" stop-opacity="0"/>
    <stop offset="50%" stop-color="#ffffff" stop-opacity="0.9"/>
    <stop offset="100%" stop-color="#ffffff" stop-opacity="0"/>
  </linearGradient>
    <linearGradient id="glass" x1="0%" y1="0%" x2="100%" y2="100%">
    <stop offset="0%" stop-color="#ffffff" stop-opacity="0.32"/>
    <stop offset="100%" stop-color="#ffffff" stop-opacity="0.02"/>
  </linearGradient>
    <filter id="soft" x="-40%" y="-40%" width="180%" height="180%">
  <feGaussianBlur stdDeviation="18"/>
</filter>
  </defs>
  <rect width="900" height="900" fill="url(#bg)"/>
  <rect width="900" height="900" fill="url(#glow)"/>
  <rect x="10" y="10" width="880" height="880" rx="48" fill="url(#glass)" opacity="0.5"/>
  <ellipse cx="450" cy="792" rx="150" ry="13" fill="#000000" opacity="0.42" filter="url(#soft)"/>
  <g transform="translate(450 450) rotate(0) scale(0.7) translate(-450 -450)">
  <g transform="translate(54 126) scale(0.72)">
      <rect x="230" y="300" width="440" height="180" rx="34" fill="url(#unit)" stroke="url(#metalSoft)" stroke-width="6"/>
      <path d="M320 300 L350 230 H550 L580 300" fill="url(#unitSoft)" stroke="url(#metalSoft)" stroke-width="6"/>
      <circle cx="450" cy="390" r="88" fill="url(#unitSoft)"/>
      <circle cx="450" cy="390" r="88" fill="none" stroke="url(#metal)" stroke-width="10"/>
      <circle cx="450" cy="390" r="52" fill="url(#acc)"/>
      <circle cx="450" cy="390" r="26" fill="url(#unit)"/>
      <rect x="330" y="330" width="26" height="16" rx="6" fill="url(#accLight)"/>
      <ellipse cx="590" cy="330" rx="8" ry="6" fill="url(#metalSoft)"/>
    </g>
</g>
  <rect x="1" y="1" width="898" height="898" rx="48" fill="#ffffff" opacity="0.03"/>
  <rect x="1" y="1" width="898" height="898" rx="48" fill="none" stroke="#ffffff" stroke-opacity="0.06" stroke-width="2"/>
</svg>