<svg xmlns="http://www.w3.org/2000/svg" viewBox="0 0 900 900" width="900" height="900">
  <defs>
    
  <radialGradient id="bg" cx="50%" cy="33%" r="85%">
    <stop offset="0%" stop-color="#65247b"/>
    <stop offset="60%" stop-color="#331c15"/>
    <stop offset="100%" stop-color="#1e0b1c"/>
  </radialGradient>
  <radialGradient id="glow" cx="50%" cy="42%" r="60%">
    <stop offset="0%" stop-color="#ca47f5" stop-opacity="0.55"/>
    <stop offset="55%" stop-color="#ab18dc" stop-opacity="0.14"/>
    <stop offset="100%" stop-color="#8a1fad" stop-opacity="0"/>
  </radialGradient>
    <linearGradient id="metal" x1="0%" y1="0%" x2="100%" y2="100%">
    <stop offset="0%" stop-color="#cdc0ce"/>
    <stop offset="100%" stop-color="#5e3960"/>
  </linearGradient>
    <linearGradient id="metalSoft" x1="0%" y1="0%" x2="100%" y2="100%">
    <stop offset="0%" stop-color="#b29eb3"/>
    <stop offset="100%" stop-color="#4c2d4d"/>
  </linearGradient>
    <linearGradient id="acc" x1="0%" y1="0%" x2="100%" y2="100%">
    <stop offset="0%" stop-color="#b969d3"/>
    <stop offset="100%" stop-color="#8930a6"/>
  </linearGradient>
    <linearGradient id="accLight" x1="0%" y1="0%" x2="100%" y2="100%">
    <stop offset="0%" stop-color="#d6a8e6"/>
    <stop offset="100%" stop-color="#b561d1"/>
  </linearGradient>
    <linearGradient id="unit" x1="0%" y1="0%" x2="100%" y2="100%">
    <stop offset="0%" stop-color="#6c2d80"/>
    <stop offset="100%" stop-color="#391844"/>
  </linearGradient>
    <linearGradient id="unitSoft" x1="0%" y1="0%" x2="100%" y2="100%">
    <stop offset="0%" stop-color="#572867"/>
    <stop offset="100%" stop-color="#32173b"/>
  </linearGradient>
    <linearGradient id="sheen" x1="0%" y1="0%" x2="100%" y2="0%">
    <stop offset="0%" stop-color="#ffffff" stop-opacity="0"/>
    <stop offset="50%" stop-color="#ffffff" stop-opacity="0.9"/>
    <stop offset="100%" stop-color="#ffffff" stop-opacity="0"/>
  </linearGradient>
    <linearGradient id="glass" x1="0%" y1="0%" x2="100%" y2="100%">
    <stop offset="0%" stop-color="#ffffff" stop-opacity="0.32"/>
    <stop offset="100%" stop-color="#ffffff" stop-opacity="0.02"/>
  </linearGradient>
    <filter id="soft" x="-40%" y="-40%" width="180%" height="180%">
  <feGaussianBlur stdDeviation="18"/>
</filter>
  </defs>
  <rect width="900" height="900" fill="url(#bg)"/>
  <rect width="900" height="900" fill="url(#glow)"/>
  <rect x="10" y="10" width="880" height="880" rx="48" fill="url(#glass)" opacity="0.5"/>
  <ellipse cx="450" cy="792" rx="150" ry="13" fill="#000000" opacity="0.42" filter="url(#soft)"/>
  <g transform="translate(450 450) rotate(6) scale(0.728) translate(-450 -450)">
  <g transform="translate(54 126) scale(0.72)">
      <ellipse cx="450" cy="388" rx="200" ry="120" fill="url(#unitSoft)"/>
      <ellipse cx="450" cy="360" rx="200" ry="120" fill="url(#unit)" stroke="url(#metalSoft)" stroke-width="6"/>
      <ellipse cx="450" cy="360" rx="120" ry="72" fill="url(#unitSoft)"/>
      <path d="M404 330 V250 M496 330 V250" stroke="url(#metalSoft)" stroke-width="20" stroke-linecap="round"/>
      <line x1="360" y1="330" x2="540" y2="330" stroke="url(#sheen)" stroke-width="10" opacity="0.35"/>
    </g>
</g>
  <rect x="1" y="1" width="898" height="898" rx="48" fill="#ffffff" opacity="0.03"/>
  <rect x="1" y="1" width="898" height="898" rx="48" fill="none" stroke="#ffffff" stroke-opacity="0.06" stroke-width="2"/>
</svg>