<svg xmlns="http://www.w3.org/2000/svg" viewBox="0 0 800 1000" width="800" height="1000">
  <defs>
    <linearGradient id="bg" x1="0" y1="0" x2="0" y2="1">
      <stop offset="0" stop-color="#ece2d5"/>
      <stop offset="1" stop-color="#e6d7c7"/>
    </linearGradient>
    <filter id="soft" x="-20%" y="-200%" width="140%" height="500%">
      <feGaussianBlur stdDeviation="10"/>
    </filter>
  </defs>
  <rect width="800" height="1000" fill="url(#bg)"/>
  <ellipse cx="400" cy="576" rx="200" ry="11" fill="#1f1d1a" opacity="0.1" filter="url(#soft)"/>
  <g transform="translate(170 130) scale(2.3)">
    <path d="M60 30 Q100 10 140 30 L136 160 L110 160 L104 62 L96 62 L90 176 L64 176 Z" fill="#b8875a" stroke="#644d37" stroke-width="1.3" stroke-linejoin="round"/>
    <path d="M68 176 v10 M74 176 v10 M80 176 v10 M86 176 v10 M113 160 v10 M119 160 v10 M125 160 v10 M131 160 v10 M60 30 Q100 50 140 30" fill="none" stroke="#644d37" stroke-width="1.1" stroke-linecap="round" stroke-linejoin="round" opacity="0.8"/>
  </g>
  <rect y="800" width="800" height="200" fill="#ede8e0" opacity="0.9"/>
  <text x="400" y="862" text-anchor="middle" font-family="'Helvetica Neue', Helvetica, Arial, sans-serif" font-size="17" letter-spacing="6" fill="#1f1d1a" fill-opacity="0.5">ACCESSORIES</text>
  <text x="400" y="912" text-anchor="middle" font-family="'Cormorant Garamond', Georgia, 'Times New Roman', serif" font-size="40" font-weight="600" fill="#1f1d1a" fill-opacity="0.85">Wren Cashmere Scarf</text>
  <text x="400" y="952" text-anchor="middle" font-family="'Helvetica Neue', Helvetica, Arial, sans-serif" font-size="13" letter-spacing="3" fill="#1f1d1a" fill-opacity="0.38">PACKSHOT · PHOTO COMING SOON</text>
</svg>
